<svg viewBox="0 0 120 120" xmlns="http://www.w3.org/2000/svg" role="img" aria-labelledby="title desc">
  <title id="title">Riddhi General Trading logo</title>
  <desc id="desc">A premium gold and emerald leaf mark for Riddhi General Trading.</desc>
  <defs>
    <linearGradient id="leafGold" x1="16" y1="10" x2="94" y2="108" gradientUnits="userSpaceOnUse">
      <stop offset="0" stop-color="#ffd77a"/>
      <stop offset="0.48" stop-color="#f2aa22"/>
      <stop offset="1" stop-color="#d88a07"/>
    </linearGradient>
    <linearGradient id="leafEmerald" x1="30" y1="105" x2="104" y2="26" gradientUnits="userSpaceOnUse">
      <stop offset="0" stop-color="#34e7a5"/>
      <stop offset="1" stop-color="#035c4b"/>
    </linearGradient>
    <filter id="softShadow" x="-20%" y="-20%" width="140%" height="140%">
      <feDropShadow dx="0" dy="12" stdDeviation="10" flood-color="#0b241f" flood-opacity="0.22"/>
    </filter>
  </defs>
  <circle cx="60" cy="60" r="56" fill="#fffdf8"/>
  <path d="M33 87C23 61 29 34 57 16c-8 20-1 36 17 52 14 13 22 27 16 42-12-16-28-21-45-29-5 8-8 15-12 6Z" fill="url(#leafGold)" filter="url(#softShadow)"/>
  <path d="M58 106c7-31 27-43 42-58 6-6 9-13 10-21 9 33-4 62-52 79Z" fill="url(#leafGold)" opacity="0.72"/>
  <path d="M25 88c8 10 16 16 26 20" fill="none" stroke="url(#leafEmerald)" stroke-width="9" stroke-linecap="round"/>
  <path d="M45 94c12-30 31-43 47-59" fill="none" stroke="#fffdf8" stroke-width="7" stroke-linecap="round" opacity="0.92"/>
  <path d="M43 25c-7 14-6 27 4 39" fill="none" stroke="#fffdf8" stroke-width="6" stroke-linecap="round" opacity="0.86"/>
</svg>
